<?xml version="1.0" standalone="no"?><!DOCTYPE svg PUBLIC "-//W3C//DTD SVG 1.1//EN" "http://www.w3.org/Graphics/SVG/1.1/DTD/svg11.dtd"><svg t="1604026362091" class="icon" viewBox="0 0 1024 1024" version="1.1" xmlns="http://www.w3.org/2000/svg" p-id="942" xmlns:xlink="http://www.w3.org/1999/xlink" width="200" height="200"><defs><style type="text/css"></style></defs><path d="M489.5232 162.4832a66.304 66.304 0 0 1 66.3808 0l248.7552 143.616a66.3552 66.3552 0 0 1 33.28 57.4976v287.232a66.3552 66.3552 0 0 1-33.28 57.472l-248.7552 143.616a66.3808 66.3808 0 0 1-66.3808 0l-248.6528-143.616a66.4064 66.4064 0 0 1-33.28-57.472v-287.232a66.56 66.56 0 0 1 33.28-57.4976z m132.1728 126.9504a50.8416 50.8416 0 0 0-49.8944 51.7376 52.5312 52.5312 0 0 0 15.616 37.6064l-31.1808 51.6096a80.8704 80.8704 0 0 0-85.76 8.064l-34.688-34.7904a44.2112 44.2112 0 0 0 5.5552-21.5296 43.52 43.52 0 0 0-12.1088-30.4128 41.2416 41.2416 0 0 0-29.4912-12.8 42.368 42.368 0 0 0-41.5488 43.0848 43.52 43.52 0 0 0 12.0832 30.4128 41.2416 41.2416 0 0 0 29.4912 12.8 40.0128 40.0128 0 0 0 19.3024-4.9152l34.8416 34.944a88.96 88.96 0 0 0-3.4048 100.352l-47.36 47.5136a54.144 54.144 0 0 0-36.48-14.208 57.5232 57.5232 0 1 0 55.424 57.472 59.008 59.008 0 0 0-4.9664-23.8336l48.8448-49.024a80.896 80.896 0 0 0 112.4608-4.608l40.7552 27.4944a58.88 58.88 0 0 0-4.3008 22.1952 55.4752 55.4752 0 1 0 55.424-57.4976 54.144 54.144 0 0 0-37.888 15.5392l-39.936-26.9056 1.9456-3.8912a88.6016 88.6016 0 0 0 8.3968-33.6384v-4.3776a87.5008 87.5008 0 0 0-27.392-64l32.1024-53.12a48.8192 48.8192 0 0 0 14.1056 2.0992 51.7888 51.7888 0 0 0 0-103.5008z" fill="#08979C" p-id="943"></path><path d="M396.8 371.2m-64 0a64 64 0 1 0 128 0 64 64 0 1 0-128 0Z" fill="#FF9600" p-id="944"></path><path d="M368.64 645.12m-64 0a64 64 0 1 0 128 0 64 64 0 1 0-128 0Z" fill="#D5663C" p-id="945"></path><path d="M670.72 614.4m-64 0a64 64 0 1 0 128 0 64 64 0 1 0-128 0Z" fill="#21A4FE" p-id="946"></path><path d="M627.2 345.6m-64 0a64 64 0 1 0 128 0 64 64 0 1 0-128 0Z" fill="#47B05A" p-id="947"></path></svg>